<svg width="32" height="32" viewBox="0 0 32 32" fill="none" xmlns="http://www.w3.org/2000/svg">
<path d="M26.6668 10.6667L18.6668 3.65334C17.9334 2.9974 16.984 2.63477 16.0001 2.63477C15.0162 2.63477 14.0668 2.9974 13.3335 3.65334L5.33346 10.6667C4.90995 11.0454 4.57199 11.5101 4.34209 12.0297C4.11218 12.5493 3.99561 13.1119 4.00013 13.68V25.3333C4.00013 26.3942 4.42155 27.4116 5.1717 28.1618C5.92184 28.9119 6.93926 29.3333 8.00013 29.3333H24.0001C25.061 29.3333 26.0784 28.9119 26.8286 28.1618C27.5787 27.4116 28.0001 26.3942 28.0001 25.3333V13.6667C28.0028 13.1008 27.8853 12.5407 27.6554 12.0236C27.4256 11.5064 27.0886 11.044 26.6668 10.6667ZM18.6668 26.6667H13.3335V20C13.3335 19.6464 13.4739 19.3072 13.724 19.0572C13.974 18.8072 14.3132 18.6667 14.6668 18.6667H17.3335C17.6871 18.6667 18.0262 18.8072 18.2763 19.0572C18.5263 19.3072 18.6668 19.6464 18.6668 20V26.6667ZM25.3335 25.3333C25.3335 25.687 25.193 26.0261 24.9429 26.2762C24.6929 26.5262 24.3537 26.6667 24.0001 26.6667H21.3335V20C21.3335 18.9391 20.912 17.9217 20.1619 17.1716C19.4117 16.4214 18.3943 16 17.3335 16H14.6668C13.6059 16 12.5885 16.4214 11.8384 17.1716C11.0882 17.9217 10.6668 18.9391 10.6668 20V26.6667H8.00013C7.6465 26.6667 7.30737 26.5262 7.05732 26.2762C6.80727 26.0261 6.66679 25.687 6.66679 25.3333V13.6667C6.66703 13.4774 6.70758 13.2903 6.78575 13.1178C6.86391 12.9454 6.9779 12.7916 7.12013 12.6667L15.1201 5.66668C15.3634 5.45292 15.6762 5.33503 16.0001 5.33503C16.324 5.33503 16.6368 5.45292 16.8801 5.66668L24.8801 12.6667C25.0224 12.7916 25.1363 12.9454 25.2145 13.1178C25.2927 13.2903 25.3332 13.4774 25.3335 13.6667V25.3333Z" fill="#424B5A"/>
</svg>
