<svg width="402" height="427" viewBox="0 0 402 427" fill="none" xmlns="http://www.w3.org/2000/svg">
<ellipse cx="200.5" cy="226" rx="163.5" ry="163" fill="#DAF1EC"/>
<path d="M307 149.377C307 179.944 277.2 171.39 248.669 189C216.453 189 140.882 161.956 190.337 149.377C239.792 136.799 216.453 89 248.669 89C280.884 89 307 118.811 307 149.377Z" fill="#ADD8CE"/>
<path d="M163 295.189C163 278.071 153.366 282.862 144.141 273C133.725 273 109.293 288.145 125.282 295.189C141.271 302.233 133.725 329 144.141 329C154.557 329 163 312.306 163 295.189Z" fill="#ADD8CE"/>
<path d="M37 226.132C37 188.229 59.8539 198.836 81.7353 177C106.442 177 164.398 210.535 126.471 226.132C88.5429 241.73 106.442 301 81.7353 301C57.0287 301 37 264.035 37 226.132Z" fill="#ADD8CE"/>
<path d="M218 30.9198C177.839 55.3929 180.987 192.728 113.215 155.705C122.618 97.3169 70.5234 161.951 31 108.612C116.96 124.957 31.7383 67.1962 60.5035 67.1962C113.215 -11.8418 160.268 -17.3987 218 30.9198Z" fill="#ADD8CE"/>
<path d="M390 221.199C349.67 245.538 415.836 328.541 347.78 291.72C357.222 233.651 289.785 309.908 250.096 256.861C200.314 190.324 265.961 203.695 294.847 203.695C347.78 125.089 332.026 173.144 390 221.199Z" fill="#ADD8CE"/>
<path d="M171.782 335.72C116.516 364.835 126.565 377.493 237.095 362.936C347.626 348.379 318.109 309.137 261.588 302.808C205.067 296.479 227.047 306.606 171.782 335.72Z" fill="#ADD8CE"/>
<path d="M173.422 239.72C155.852 268.835 159.047 281.493 194.186 266.936C229.326 252.379 219.942 213.137 201.973 206.808C184.004 200.479 190.992 210.606 173.422 239.72Z" fill="#ADD8CE"/>
<ellipse cx="141" cy="320.5" rx="16" ry="5.5" fill="#212121" fill-opacity="0.55"/>
<ellipse cx="142" cy="269" rx="28" ry="27" fill="#FEDA90"/>
<path d="M142 318L162.778 287.357L164 285H120L121.222 287.357L142 318Z" fill="#FEDA90"/>
<ellipse cx="142" cy="268.5" rx="11" ry="11.5" fill="white"/>
<ellipse cx="265.5" cy="145" rx="15.5" ry="6" fill="#212121" fill-opacity="0.55"/>
<ellipse cx="265.5" cy="117.5" rx="15.5" ry="16.5" fill="#FEDA90"/>
<path d="M265.5 145L277.306 128.286L278 127H253L253.694 128.286L265.5 145Z" fill="#FEDA90"/>
<ellipse cx="265.5" cy="117.5" rx="5.5" ry="6.5" fill="white"/>
<ellipse cx="128.5" cy="101" rx="15.5" ry="6" fill="#212121" fill-opacity="0.55"/>
<path d="M401.462 211.717C401.7 214.976 401.86 218.257 401.94 221.558L401.44 221.57C401.48 223.209 401.5 224.852 401.5 226.5C401.5 228.148 401.48 229.791 401.44 231.43L401.94 231.442C401.86 234.743 401.7 238.024 401.462 241.283L400.963 241.247C400.723 244.53 400.404 247.791 400.007 251.029L400.503 251.09C400.102 254.364 399.622 257.614 399.064 260.837L398.571 260.752C398.011 263.993 397.372 267.207 396.657 270.392L397.144 270.502C396.423 273.717 395.623 276.904 394.749 280.059L394.267 279.926C393.389 283.093 392.435 286.228 391.407 289.329L391.882 289.487C390.845 292.613 389.734 295.705 388.55 298.76L388.084 298.58C386.898 301.642 385.638 304.667 384.307 307.654L384.764 307.858C383.424 310.864 382.013 313.831 380.531 316.757L380.085 316.531C378.603 319.459 377.051 322.345 375.431 325.188L375.865 325.436C374.237 328.293 372.54 331.107 370.777 333.875L370.356 333.606C368.594 336.372 366.766 339.093 364.873 341.765L365.281 342.054C363.382 344.736 361.417 347.37 359.391 349.953L358.998 349.645C356.974 352.224 354.889 354.753 352.744 357.228L353.121 357.556C350.97 360.039 348.758 362.469 346.488 364.843L346.127 364.497C343.862 366.866 341.54 369.179 339.163 371.435L339.507 371.798C337.125 374.058 334.687 376.261 332.195 378.404L331.869 378.025C329.386 380.161 326.85 382.237 324.263 384.251L324.57 384.646C321.98 386.663 319.339 388.617 316.649 390.508L316.362 390.099C313.684 391.982 310.957 393.801 308.184 395.553L308.452 395.976C305.678 397.729 302.859 399.417 299.996 401.036L299.75 400.601C296.902 402.212 294.01 403.755 291.078 405.228L291.302 405.675C288.372 407.147 285.401 408.55 282.391 409.882L282.189 409.424C279.198 410.747 276.169 411.999 273.104 413.177L273.284 413.644C270.225 414.82 267.131 415.924 264.002 416.953L263.846 416.478C260.742 417.499 257.605 418.447 254.436 419.319L254.569 419.801C251.412 420.669 248.224 421.463 245.007 422.18L244.898 421.692C241.712 422.402 238.497 423.036 235.255 423.593L235.339 424.085C232.115 424.639 228.865 425.116 225.59 425.515L225.53 425.018C222.292 425.412 219.031 425.729 215.747 425.967L215.783 426.466C212.524 426.702 209.243 426.861 205.942 426.941L205.93 426.441C204.291 426.48 202.648 426.5 201 426.5C199.352 426.5 197.709 426.48 196.07 426.441L196.058 426.941C192.757 426.861 189.476 426.702 186.217 426.466L186.253 425.967C182.969 425.729 179.708 425.412 176.47 425.018L176.41 425.515C173.135 425.116 169.885 424.639 166.661 424.085L166.745 423.593C163.503 423.036 160.288 422.402 157.102 421.692L156.993 422.18C153.776 421.463 150.588 420.669 147.431 419.801L147.564 419.319C144.395 418.447 141.258 417.499 138.154 416.478L137.998 416.953C134.869 415.924 131.775 414.82 128.716 413.644L128.896 413.177C125.831 411.999 122.802 410.747 119.811 409.424L119.609 409.882C116.599 408.55 113.628 407.147 110.698 405.675L110.922 405.228C107.99 403.755 105.098 402.212 102.25 400.601L102.004 401.036C99.1412 399.417 96.3219 397.729 93.5485 395.976L93.8157 395.553C91.0431 393.801 88.3165 391.982 85.6382 390.099L85.3507 390.508C82.661 388.617 80.02 386.663 77.4298 384.646L77.737 384.251C75.15 382.237 72.6138 380.161 70.1306 378.025L69.8046 378.404C67.3133 376.261 64.8753 374.059 62.4928 371.798L62.837 371.435C60.4596 369.18 58.1376 366.866 55.8734 364.498L55.5119 364.843C53.2423 362.469 51.0304 360.039 48.8786 357.556L49.2565 357.228C47.1112 354.753 45.0258 352.224 43.0024 349.645L42.609 349.953C40.5827 347.37 38.6185 344.736 36.7187 342.054L37.1267 341.765C35.2345 339.093 33.4063 336.372 31.6443 333.606L31.2225 333.875C29.4597 331.107 27.763 328.293 26.1347 325.436L26.5691 325.188C24.949 322.345 23.3968 319.459 21.9146 316.531L21.4685 316.757C19.9873 313.831 18.5759 310.864 17.2364 307.858L17.6931 307.654C16.3621 304.667 15.1023 301.642 13.9159 298.58L13.4497 298.76C12.2657 295.705 11.1546 292.613 10.1185 289.487L10.5931 289.329C9.56508 286.228 8.61109 283.093 7.73323 279.926L7.2514 280.059C6.3767 276.904 5.57738 273.717 4.85552 270.502L5.34338 270.392C4.62833 267.207 3.98947 263.993 3.42879 260.752L2.93611 260.837C2.37843 257.614 1.89792 254.364 1.49653 251.09L1.99281 251.029C1.59594 247.791 1.27661 244.53 1.03673 241.247L0.53806 241.283C0.299927 238.024 0.139908 234.743 0.0598606 231.442L0.559714 231.43C0.519981 229.791 0.5 228.148 0.5 226.5C0.5 224.852 0.519981 223.209 0.559714 221.57L0.0598613 221.558C0.139909 218.257 0.299929 214.976 0.538062 211.717L1.03673 211.753C1.27661 208.47 1.59594 205.209 1.99281 201.971L1.49653 201.91C1.89792 198.636 2.37844 195.386 2.93611 192.163L3.42879 192.248C3.98947 189.007 4.62833 185.793 5.34337 182.608L4.85552 182.498C5.57738 179.283 6.37669 176.096 7.2514 172.941L7.73323 173.074C8.61108 169.907 9.56507 166.772 10.5931 163.671L10.1185 163.513C11.1546 160.387 12.2657 157.295 13.4497 154.24L13.9159 154.42C15.1023 151.358 16.3621 148.333 17.6931 145.346L17.2364 145.142C18.5759 142.136 19.9873 139.169 21.4685 136.243L21.9146 136.469C23.3968 133.541 24.949 130.655 26.5691 127.812L26.1347 127.564C27.763 124.707 29.4597 121.893 31.2225 119.125L31.6442 119.394C33.4062 116.628 35.2345 113.907 37.1267 111.235L36.7187 110.946C38.6185 108.264 40.5827 105.63 42.609 103.047L43.0024 103.355C45.0257 100.776 47.1112 98.2472 49.2565 95.7716L48.8786 95.4442C51.0304 92.9611 53.2422 90.5313 55.5119 88.157L55.8733 88.5025C58.1376 86.1338 60.4595 83.8205 62.8369 81.5648L62.4928 81.2021C64.8753 78.9415 67.3132 76.7387 69.8045 74.5958L70.1306 74.9749C72.6137 72.839 75.1499 70.7628 77.7369 68.7486L77.4298 68.354C80.02 66.3373 82.661 64.3826 85.3506 62.4919L85.6381 62.901C88.3164 61.0184 91.043 59.1995 93.8157 57.4466L93.5485 57.024C96.3218 55.2707 99.1411 53.5833 102.004 51.964L102.25 52.3992C105.098 50.7884 107.99 49.2451 110.922 47.7716L110.698 47.3248C113.628 45.8526 116.599 44.4497 119.609 43.1185L119.811 43.5757C122.802 42.2531 125.831 41.0013 128.896 39.8225L128.716 39.3558C131.775 38.1796 134.869 37.0759 137.998 36.0466L138.154 36.5216C141.258 35.5006 144.395 34.5531 147.564 33.6813L147.431 33.1992C150.588 32.3306 153.776 31.5369 156.993 30.8201L157.102 31.3082C160.288 30.5982 163.503 29.9639 166.745 29.4073L166.661 28.9145C169.885 28.3609 173.135 27.8839 176.41 27.4854L176.47 27.9818C179.708 27.5878 182.969 27.2709 186.253 27.0328L186.217 26.5341C189.476 26.2977 192.757 26.1389 196.058 26.0594L196.07 26.5593C197.709 26.5198 199.352 26.5 201 26.5C202.648 26.5 204.291 26.5198 205.93 26.5593L205.942 26.0594C209.243 26.1389 212.524 26.2977 215.783 26.5341L215.747 27.0328C219.031 27.2709 222.292 27.5878 225.53 27.9818L225.59 27.4854C228.865 27.8839 232.115 28.3609 235.339 28.9145L235.255 29.4073C238.497 29.9639 241.712 30.5982 244.898 31.3082L245.007 30.8201C248.224 31.5369 251.412 32.3306 254.569 33.1992L254.436 33.6813C257.605 34.5531 260.742 35.5006 263.846 36.5216L264.002 36.0467C267.131 37.0759 270.225 38.1796 273.284 39.3558L273.104 39.8225C276.169 41.0013 279.198 42.2531 282.189 43.5757L282.391 43.1184C285.401 44.4497 288.372 45.8525 291.302 47.3248L291.078 47.7716C294.01 49.2451 296.902 50.7884 299.75 52.3992L299.996 51.964C302.859 53.5833 305.678 55.2707 308.452 57.024L308.184 57.4466C310.957 59.1995 313.684 61.0184 316.362 62.901L316.649 62.4919C319.339 64.3826 321.98 66.3373 324.57 68.354L324.263 68.7486C326.85 70.7628 329.386 72.839 331.869 74.9749L332.195 74.5958C334.687 76.7387 337.125 78.9415 339.507 81.2021L339.163 81.5648C341.54 83.8205 343.862 86.1338 346.127 88.5025L346.488 88.157C348.758 90.5313 350.97 92.9611 353.121 95.4442L352.744 95.7716C354.889 98.2472 356.974 100.776 358.998 103.355L359.391 103.047C361.417 105.63 363.382 108.264 365.281 110.946L364.873 111.235C366.766 113.907 368.594 116.628 370.356 119.394L370.777 119.125C372.54 121.893 374.237 124.707 375.865 127.564L375.431 127.812C377.051 130.655 378.603 133.541 380.085 136.469L380.531 136.243C382.013 139.169 383.424 142.136 384.764 145.142L384.307 145.346C385.638 148.333 386.898 151.358 388.084 154.42L388.55 154.24C389.734 157.295 390.845 160.387 391.882 163.513L391.407 163.671C392.435 166.772 393.389 169.907 394.267 173.074L394.749 172.941C395.623 176.096 396.423 179.283 397.144 182.498L396.657 182.608C397.372 185.793 398.011 189.007 398.571 192.248L399.064 192.163C399.622 195.386 400.102 198.636 400.503 201.91L400.007 201.971C400.404 205.209 400.723 208.47 400.963 211.753L401.462 211.717Z" stroke="#424B5A" stroke-dasharray="10 10"/>
<path d="M363.8 226C363.8 315.911 290.689 388.8 200.5 388.8C110.311 388.8 37.2 315.911 37.2 226C37.2 136.089 110.311 63.2 200.5 63.2C290.689 63.2 363.8 136.089 363.8 226Z" stroke="#1C1C1C" stroke-width="0.4"/>
<path d="M129 101L149.778 71.2857L151 69H107L108.222 71.2857L129 101Z" fill="#FEDA90"/>
<ellipse cx="128.5" cy="53" rx="27.5" ry="27" fill="#FEDA90"/>
<ellipse cx="129" cy="54" rx="10" ry="11" fill="white"/>
<path d="M381.202 315.298C379.359 315.654 377.506 316.013 376.757 317.056L370.878 326.256L342.249 331.794L340.907 334.741L362.389 336.859L358.186 344.836L349.878 346.443L347.609 349.569L353.482 350.222L353.983 352.813C354.223 353.732 355.242 354.358 356.16 354.18L358.929 353.645L361.775 358.469L364.043 355.343L362.54 347.571L368.919 340.962L379.06 358.712L381.495 356.451L376.317 329.68L383.289 321.168C384.048 320.122 383.714 318.398 383.379 316.665C383.213 315.807 382.119 315.12 381.202 315.298Z" fill="#424B5A"/>
<path d="M386.418 219.346C386.968 218.244 387.28 217.092 387.28 215.901C387.28 208.439 376.008 202.404 362.11 202.404C358.53 202.404 355.133 202.808 352.067 203.527C348.983 199.687 341.859 197 333.579 197C322.454 197 313.439 201.833 313.439 207.799C313.439 208.203 313.586 208.577 313.659 208.97C305.6 210.969 300 215.32 300 220.4C300 227.359 310.52 233 323.5 233H380.579C387.996 233 394 229.781 394 225.804C394 222.949 390.897 220.518 386.418 219.346Z" fill="white"/>
<path d="M89.2112 154.277C89.5631 153.572 89.7625 152.836 89.7625 152.075C89.7625 147.308 82.5605 143.453 73.6812 143.453C71.394 143.453 69.224 143.711 67.2651 144.17C65.2946 141.717 60.7435 140 55.4534 140C48.3453 140 42.5861 143.088 42.5861 146.899C42.5861 147.157 42.6799 147.396 42.7268 147.648C37.5775 148.925 34 151.704 34 154.95C34 159.396 40.7211 163 49.0139 163H85.4812C90.22 163 94.0556 160.943 94.0556 158.403C94.0556 156.579 92.0733 155.025 89.2112 154.277Z" fill="white"/>
<path d="M220.324 352.38C219.937 351.523 219.718 350.627 219.718 349.701C219.718 343.897 227.633 339.203 237.391 339.203C239.905 339.203 242.289 339.517 244.442 340.076C246.608 337.09 251.609 335 257.423 335C265.235 335 271.564 338.759 271.564 343.399C271.564 343.713 271.461 344.004 271.409 344.31C277.068 345.865 281 349.249 281 353.2C281 358.613 273.614 363 264.5 363H224.423C219.215 363 215 360.496 215 357.403C215 355.183 217.179 353.291 220.324 352.38Z" fill="white"/>
</svg>
