<svg width="32" height="32" viewBox="0 0 32 32" fill="none" xmlns="http://www.w3.org/2000/svg">
<path d="M23.875 15.0137H17.125V8.26367C17.125 7.9653 17.0065 7.67916 16.7955 7.46818C16.5845 7.2572 16.2984 7.13867 16 7.13867C15.7016 7.13867 15.4155 7.2572 15.2045 7.46818C14.9935 7.67916 14.875 7.9653 14.875 8.26367V15.0137H8.125C7.82663 15.0137 7.54048 15.1322 7.32951 15.3432C7.11853 15.5542 7 15.8403 7 16.1387C7 16.437 7.11853 16.7232 7.32951 16.9342C7.54048 17.1451 7.82663 17.2637 8.125 17.2637H14.875V24.0137C14.875 24.312 14.9935 24.5982 15.2045 24.8092C15.4155 25.0201 15.7016 25.1387 16 25.1387C16.2984 25.1387 16.5845 25.0201 16.7955 24.8092C17.0065 24.5982 17.125 24.312 17.125 24.0137V17.2637H23.875C24.1734 17.2637 24.4595 17.1451 24.6705 16.9342C24.8815 16.7232 25 16.437 25 16.1387C25 15.8403 24.8815 15.5542 24.6705 15.3432C24.4595 15.1322 24.1734 15.0137 23.875 15.0137Z" fill="#424B5A"/>
<rect x="1.25" y="1.25" width="29.5" height="29.5" rx="6.75" stroke="#424B5A" stroke-width="2.5"/>
</svg>
