<svg width="137" height="42" viewBox="0 0 137 42" fill="none" xmlns="http://www.w3.org/2000/svg">
<path d="M19.114 30.808V34H3.268V7.666H6.954V30.808H19.114ZM60.6818 34.57C58.8325 34.57 57.1478 34.266 55.6278 33.658C54.1078 33.05 52.8032 32.1633 51.7138 30.998C50.6245 29.8327 49.7758 28.4013 49.1678 26.704C48.5852 24.9813 48.2938 23.018 48.2938 20.814C48.2938 18.61 48.6232 16.6593 49.2818 14.962C49.9658 13.2393 50.8778 11.7953 52.0178 10.63C53.1578 9.46467 54.4878 8.578 56.0078 7.97C57.5278 7.362 59.1492 7.058 60.8718 7.058C61.9612 7.058 62.9365 7.134 63.7978 7.286C64.6845 7.438 65.4445 7.61533 66.0778 7.818C66.7365 8.02067 67.2685 8.22333 67.6738 8.426C68.0792 8.62867 68.3578 8.78067 68.5098 8.882L67.4458 11.922C67.2178 11.77 66.8885 11.6053 66.4578 11.428C66.0272 11.2507 65.5332 11.0733 64.9758 10.896C64.4438 10.7187 63.8485 10.5793 63.1898 10.478C62.5565 10.3513 61.9105 10.288 61.2518 10.288C59.8585 10.288 58.6045 10.5287 57.4898 11.01C56.3752 11.4913 55.4252 12.188 54.6398 13.1C53.8545 14.012 53.2465 15.1267 52.8158 16.444C52.4105 17.736 52.2078 19.1927 52.2078 20.814C52.2078 22.3847 52.3852 23.816 52.7398 25.108C53.1198 26.4 53.6772 27.5147 54.4118 28.452C55.1465 29.364 56.0585 30.0733 57.1478 30.58C58.2625 31.0867 59.5545 31.34 61.0238 31.34C62.7212 31.34 64.1272 31.1627 65.2418 30.808C66.3565 30.4533 67.1925 30.1367 67.7498 29.858L68.6998 32.898C68.5225 33.0247 68.2058 33.1893 67.7498 33.392C67.2938 33.5693 66.7238 33.7467 66.0398 33.924C65.3558 34.1013 64.5578 34.2533 63.6458 34.38C62.7338 34.5067 61.7458 34.57 60.6818 34.57ZM91.3698 34C90.9391 32.86 90.5338 31.7453 90.1538 30.656C89.7738 29.5413 89.3811 28.414 88.9758 27.274H77.0438L74.6498 34H70.8118C71.8251 31.2133 72.7751 28.642 73.6618 26.286C74.5485 23.9047 75.4098 21.65 76.2458 19.522C77.1071 17.394 77.9558 15.3673 78.7918 13.442C79.6278 11.4913 80.5018 9.566 81.4138 7.666H84.7958C85.7078 9.566 86.5818 11.4913 87.4178 13.442C88.2538 15.3673 89.0898 17.394 89.9258 19.522C90.7871 21.65 91.6611 23.9047 92.5478 26.286C93.4345 28.642 94.3845 31.2133 95.3978 34H91.3698ZM87.9118 24.234C87.1011 22.03 86.2905 19.902 85.4798 17.85C84.6945 15.7727 83.8711 13.784 83.0098 11.884C82.1231 13.784 81.2745 15.7727 80.4638 17.85C79.6785 19.902 78.8931 22.03 78.1078 24.234H87.9118ZM114.819 30.808V34H98.9731V7.666H102.659V30.808H114.819ZM125.316 31.378C129.166 31.378 131.092 30.0607 131.092 27.426C131.092 26.6153 130.914 25.9313 130.56 25.374C130.23 24.7913 129.774 24.2973 129.192 23.892C128.609 23.4613 127.938 23.094 127.178 22.79C126.443 22.486 125.658 22.182 124.822 21.878C123.859 21.5487 122.947 21.1813 122.086 20.776C121.224 20.3453 120.477 19.8513 119.844 19.294C119.21 18.7113 118.704 18.0273 118.324 17.242C117.969 16.4567 117.792 15.5067 117.792 14.392C117.792 12.0867 118.577 10.288 120.148 8.996C121.718 7.704 123.884 7.058 126.646 7.058C128.242 7.058 129.686 7.23533 130.978 7.59C132.295 7.91933 133.258 8.28667 133.866 8.692L132.688 11.694C132.156 11.3647 131.358 11.048 130.294 10.744C129.255 10.4147 128.039 10.25 126.646 10.25C125.936 10.25 125.278 10.326 124.67 10.478C124.062 10.63 123.53 10.858 123.074 11.162C122.618 11.466 122.25 11.8587 121.972 12.34C121.718 12.796 121.592 13.3407 121.592 13.974C121.592 14.6833 121.731 15.2787 122.01 15.76C122.288 16.2413 122.681 16.672 123.188 17.052C123.694 17.4067 124.277 17.736 124.936 18.04C125.62 18.344 126.367 18.648 127.178 18.952C128.318 19.408 129.356 19.864 130.294 20.32C131.256 20.776 132.08 21.3207 132.764 21.954C133.473 22.5873 134.018 23.3473 134.398 24.234C134.778 25.0953 134.968 26.1467 134.968 27.388C134.968 29.6933 134.119 31.4667 132.422 32.708C130.75 33.9493 128.381 34.57 125.316 34.57C124.277 34.57 123.314 34.494 122.428 34.342C121.566 34.2153 120.794 34.0633 120.11 33.886C119.426 33.6833 118.83 33.4807 118.324 33.278C117.842 33.05 117.462 32.86 117.184 32.708L118.286 29.668C118.868 29.9973 119.755 30.3647 120.946 30.77C122.136 31.1753 123.593 31.378 125.316 31.378Z" fill="black"/>
<ellipse cx="33.75" cy="37.375" rx="12.5" ry="4.375" fill="#212121" fill-opacity="0.55"/>
<circle cx="33.75" cy="15.5" r="12.5" fill="#ADD8CE"/>
<path d="M33.7502 38L43.1944 24.0714L43.75 23H23.75L24.3056 24.0714L33.7502 38Z" fill="#ADD8CE"/>
<circle cx="33.75" cy="15.5" r="5" fill="white"/>
</svg>
