<svg width="39" height="37" viewBox="0 0 39 37" fill="none" xmlns="http://www.w3.org/2000/svg">
<path fill-rule="evenodd" clip-rule="evenodd" d="M32.5 16.1868V24.0274L34.7981 26.2077C35.4076 26.7859 35.75 27.5702 35.75 28.3879V28.5202C35.75 29.7973 34.6587 30.8327 33.3125 30.8327H7.3125C5.96631 30.8327 4.875 29.7973 4.875 28.5202V28.3879C4.875 27.5702 5.21741 26.7859 5.8269 26.2077L8.125 24.0274V16.1868C8.125 11.2213 11.4522 6.89808 16.2514 5.29161C16.3092 3.2086 18.1028 1.54102 20.3125 1.54102C22.5222 1.54102 24.3158 3.2086 24.3736 5.29161C29.1728 6.89808 32.5 11.2213 32.5 16.1868ZM17.0625 32.3743C17.0625 34.0702 18.525 35.4577 20.3125 35.4577C22.1 35.4577 23.5625 34.0702 23.5625 32.3743H17.0625ZM29.25 16.1868V25.3046L31.8269 27.7493H8.7981L11.375 25.3046V16.1868C11.375 12.239 14.2453 8.84377 18.2496 7.94365L19.5 7.66259V5.39518C19.5 4.96704 19.8612 4.62435 20.3125 4.62435C20.7638 4.62435 21.125 4.96704 21.125 5.39518V7.66259L22.3754 7.94365C26.3797 8.84377 29.25 12.239 29.25 16.1868Z" fill="#C2D1D9"/>
<mask id="mask0_359_10288" style="mask-type:luminance" maskUnits="userSpaceOnUse" x="4" y="1" width="32" height="35">
<path fill-rule="evenodd" clip-rule="evenodd" d="M32.5 16.1868V24.0274L34.7981 26.2077C35.4076 26.7859 35.75 27.5702 35.75 28.3879V28.5202C35.75 29.7973 34.6587 30.8327 33.3125 30.8327H7.3125C5.96631 30.8327 4.875 29.7973 4.875 28.5202V28.3879C4.875 27.5702 5.21741 26.7859 5.8269 26.2077L8.125 24.0274V16.1868C8.125 11.2213 11.4522 6.89808 16.2514 5.29161C16.3092 3.2086 18.1028 1.54102 20.3125 1.54102C22.5222 1.54102 24.3158 3.2086 24.3736 5.29161C29.1728 6.89808 32.5 11.2213 32.5 16.1868ZM17.0625 32.3743C17.0625 34.0702 18.525 35.4577 20.3125 35.4577C22.1 35.4577 23.5625 34.0702 23.5625 32.3743H17.0625ZM29.25 16.1868V25.3046L31.8269 27.7493H8.7981L11.375 25.3046V16.1868C11.375 12.239 14.2453 8.84377 18.2496 7.94365L19.5 7.66259V5.39518C19.5 4.96704 19.8612 4.62435 20.3125 4.62435C20.7638 4.62435 21.125 4.96704 21.125 5.39518V7.66259L22.3754 7.94365C26.3797 8.84377 29.25 12.239 29.25 16.1868Z" fill="white"/>
</mask>
<g mask="url(#mask0_359_10288)">
<rect width="39" height="37" fill="#ADD8CE"/>
</g>
<circle cx="31" cy="9" r="5" fill="#FDA597"/>
</svg>
