<svg width="32" height="32" viewBox="0 0 32 32" fill="none" xmlns="http://www.w3.org/2000/svg">
<path d="M28.9465 27.0532L23.9999 22.1465C25.92 19.7524 26.8499 16.7136 26.5983 13.6549C26.3467 10.5963 24.9328 7.75025 22.6472 5.70206C20.3617 3.65388 17.3783 2.55922 14.3104 2.64317C11.2426 2.72711 8.3235 3.98329 6.1534 6.1534C3.98329 8.3235 2.72711 11.2426 2.64317 14.3104C2.55922 17.3783 3.65388 20.3617 5.70206 22.6472C7.75025 24.9328 10.5963 26.3467 13.6549 26.5983C16.7136 26.8499 19.7524 25.92 22.1465 23.9999L27.0532 28.9065C27.1772 29.0315 27.3246 29.1307 27.4871 29.1984C27.6496 29.2661 27.8239 29.3009 27.9999 29.3009C28.1759 29.3009 28.3502 29.2661 28.5126 29.1984C28.6751 29.1307 28.8226 29.0315 28.9465 28.9065C29.1869 28.6579 29.3212 28.3257 29.3212 27.9799C29.3212 27.6341 29.1869 27.3018 28.9465 27.0532ZM14.6665 23.9999C12.8206 23.9999 11.0161 23.4525 9.48122 22.4269C7.94636 21.4014 6.75008 19.9437 6.04366 18.2383C5.33725 16.5328 5.15241 14.6562 5.51254 12.8457C5.87267 11.0352 6.76159 9.37217 8.06688 8.06688C9.37217 6.76159 11.0352 5.87267 12.8457 5.51254C14.6562 5.15241 16.5328 5.33725 18.2383 6.04366C19.9437 6.75008 21.4014 7.94636 22.4269 9.48122C23.4525 11.0161 23.9999 12.8206 23.9999 14.6665C23.9999 17.1419 23.0165 19.5159 21.2662 21.2662C19.5159 23.0165 17.1419 23.9999 14.6665 23.9999Z" fill="#424B5A"/>
</svg>
